<svg xmlns="http://www.w3.org/2000/svg" viewBox="0 0 1280 720" role="img" aria-labelledby="title desc">
  <title id="title">Bullet Dance placeholder screenshot</title>
  <desc id="desc">Dark puzzle shooter placeholder image with trajectory lines.</desc>
  <defs>
    <linearGradient id="bg" x1="0" y1="0" x2="1" y2="1">
      <stop offset="0%" stop-color="#0a111b" />
      <stop offset="100%" stop-color="#050608" />
    </linearGradient>
  </defs>
  <rect width="1280" height="720" fill="url(#bg)" />
  <circle cx="182" cy="120" r="160" fill="#79a8ff" opacity="0.12" />
  <circle cx="1080" cy="580" r="220" fill="#79a8ff" opacity="0.08" />
  <rect x="160" y="150" width="960" height="420" rx="28" fill="#0d141d" stroke="#79a8ff" stroke-opacity="0.18" />
  <circle cx="320" cy="360" r="28" fill="#79a8ff" />
  <circle cx="940" cy="310" r="26" fill="#f4f7fb" />
  <circle cx="990" cy="420" r="26" fill="#f4f7fb" opacity="0.72" />
  <path d="M350 355C470 320 560 240 680 245c106 4 166 61 240 61" fill="none" stroke="#79a8ff" stroke-width="8" stroke-linecap="round" stroke-dasharray="16 16" />
  <path d="M355 370C505 420 625 480 768 455c80-14 127-62 204-53" fill="none" stroke="#79a8ff" stroke-width="8" stroke-linecap="round" stroke-dasharray="16 16" opacity="0.6" />
  <rect x="640" y="272" width="52" height="52" rx="10" fill="#111826" stroke="#79a8ff" stroke-opacity="0.45" />
  <rect x="620" y="430" width="52" height="52" rx="10" fill="#111826" stroke="#79a8ff" stroke-opacity="0.45" />
  <rect x="72" y="72" width="360" height="108" rx="18" fill="#0a1018" fill-opacity="0.78" stroke="#79a8ff" stroke-opacity="0.22" />
  <text x="108" y="126" fill="#f4f7fb" font-family="Arial, sans-serif" font-size="44" font-weight="700">BULLET DANCE</text>
  <text x="108" y="158" fill="#9ba8b8" font-family="Arial, sans-serif" font-size="20" letter-spacing="3">PLACEHOLDER SCREENSHOT</text>
</svg>
